<svg xmlns="http://www.w3.org/2000/svg" id="sv" width="180" height="90" viewBox="0 0 180 90">
    <path id="0" fill="#63c3d0" d="M7.710628437962441e-7, 90.01178097241731 A90,90 0 0 1 17.18062333474417,37.11012968361904 L90,90 A0,0 0 0 0 90,90 Z"></path>
    <path id="1" fill="#E31E2D" d="M17.18062333474417, 37.11012968361904 A90,90 0 0 1 62.1742786858307,4.409526036210167 L90,90 A0,0 0 0 0 90,90 Z"></path>
    <path id="2" fill="#205CA5" d="M62.1742786858307, 4.409526036210167 A90,90 0 0 1 117.81078253464511,4.404670835315557 L90,90 A0,0 0 0 0 90,90 Z"></path>
    <path id="3" fill="#51A51E" d="M117.81078253464511, 4.404670835315557 A90,90 0 0 1 162.81014453242045,37.097421110421806 L90,90 A0,0 0 0 0 90,90 Z"></path>
    <path id="4" fill="#E84188" d="M162.81014453242045, 37.097421110421806 A90,90 0 0 1 179.99999991432634,89.99607300918427 L90,90 A0,0 0 0 0 90,90 Z"></path>
</svg>